<?xml version="1.0" encoding="UTF-8"?>
<svg xmlns="http://www.w3.org/2000/svg" xmlns:xlink="http://www.w3.org/1999/xlink" width="960.8pt" height="290.2pt" viewBox="0 0 960.8 290.2" version="1.1">
<defs>
<clipPath id="clip1">
  <path d="M 0 41 L 960.800781 41 L 960.800781 272 L 0 272 Z M 0 41 "/>
</clipPath>
</defs>
<g id="surface1">
<path style=" stroke:none;fill-rule:evenodd;fill:rgb(100%,82.421875%,0%);fill-opacity:1;" d="M 69.960938 85.5625 C 108.136719 85.5625 139.085938 116.507813 139.085938 154.683594 C 139.085938 192.859375 108.136719 223.804688 69.960938 223.804688 C 31.785156 223.804688 0.839844 192.859375 0.839844 154.683594 C 0.839844 116.507813 31.785156 85.5625 69.960938 85.5625 Z M 69.960938 85.5625 "/>
<g clip-path="url(#clip1)" clip-rule="nonzero">
<path style=" stroke:none;fill-rule:evenodd;fill:rgb(0%,0%,0%);fill-opacity:1;" d="M 0.0195313 152.429688 C 146.5 169.203125 226.523438 -0.09375 51.296875 51.101563 C 175.152344 25.777344 135.972656 142.609375 0.0195313 152.429688 Z M 894.410156 108.390625 C 907.605469 88.964844 941.164063 93.355469 959.605469 102.894531 C 957.511719 109.4375 955.414063 115.984375 953.320313 122.53125 C 936.585938 114.0625 923.316406 111.089844 919.152344 122.53125 C 916.140625 131.039063 958.6875 134.441406 958.425781 164.554688 C 955.222656 196.710938 918.347656 198.308594 885.769531 185.761719 C 887.734375 178.5625 889.699219 171.359375 891.660156 164.160156 C 912.945313 177.5625 937.433594 172.261719 922.296875 159.054688 C 891.707031 144.675781 881.667969 129.578125 894.410156 108.390625 Z M 315.585938 227.890625 C 315.585938 234.894531 313.089844 240.078125 308.085938 243.429688 C 303.078125 246.769531 296.949219 248.453125 289.683594 248.453125 C 288.355469 248.453125 287.417969 248.417969 286.855469 248.359375 C 286.855469 253.878906 287.015625 261.152344 287.316406 270.199219 L 275.449219 270.199219 C 275.808594 261.722656 275.996094 251.726563 275.996094 240.214844 C 275.996094 229.648438 275.808594 220.527344 275.449219 212.863281 L 282.804688 212.863281 C 283.839844 212.863281 285.847656 212.832031 288.800781 212.742188 C 291.757813 212.652344 294.3125 212.605469 296.488281 212.605469 C 301.839844 212.605469 306.355469 213.867188 310.046875 216.394531 C 313.738281 218.914063 315.585938 222.746094 315.585938 227.890625 Z M 304.683594 230.3125 C 304.683594 224.027344 300.6875 220.886719 292.683594 220.886719 C 290.691406 220.886719 288.570313 221.097656 286.351563 221.542969 C 286.652344 227.09375 286.8125 233.378906 286.8125 240.394531 C 287.519531 240.441406 288.328125 240.472656 289.265625 240.472656 C 299.546875 240.472656 304.683594 237.089844 304.683594 230.3125 Z M 356.527344 270.152344 L 346.5625 270.515625 C 346.101563 269.265625 345.886719 268.15625 345.886719 267.164063 L 345.335938 267.164063 C 342.238281 269.914063 338.054688 271.292969 332.789063 271.292969 C 329.257813 271.292969 326.34375 270.273438 324.023438 268.246094 C 321.683594 266.199219 320.53125 263.496094 320.53125 260.113281 C 320.53125 255.652344 322.335938 251.996094 325.953125 249.15625 C 329.574219 246.296875 335.917969 244.796875 344.992188 244.617188 C 345.046875 244.09375 345.078125 243.582031 345.078125 243.117188 C 345.078125 239.945313 344.34375 237.855469 342.886719 236.847656 C 341.414063 235.824219 338.730469 235.332031 334.808594 235.332031 C 330.554688 235.332031 326.402344 235.914063 322.347656 237.089844 L 323.269531 228.988281 C 327.109375 227.605469 332.515625 226.914063 339.496094 226.914063 C 344.601563 226.914063 348.539063 228.027344 351.308594 230.265625 C 354.089844 232.488281 355.476563 236.398438 355.476563 241.972656 C 355.476563 243.207031 355.417969 245.445313 355.316406 248.707031 C 355.230469 251.96875 355.171875 254.148438 355.171875 255.230469 C 355.171875 261.296875 355.621094 266.277344 356.527344 270.152344 Z M 345.25 260.996094 C 345.078125 257.035156 344.992188 253.605469 344.992188 250.734375 C 335.386719 250.734375 330.582031 253.277344 330.582031 258.355469 C 330.582031 261.84375 332.703125 263.585938 336.929688 263.585938 C 340.246094 263.585938 343.015625 262.730469 345.25 260.996094 Z M 392.527344 228.371094 L 390.074219 238.664063 C 387.984375 237.792969 385.878906 237.34375 383.726563 237.34375 C 379.589844 237.34375 376.863281 239.285156 375.535156 243.160156 C 375.535156 254.871094 375.621094 263.886719 375.796875 270.199219 L 364.546875 270.199219 C 365.039063 261.363281 365.269531 254.148438 365.269531 248.539063 C 365.269531 241.554688 364.5625 234.921875 363.164063 228.667969 L 373.9375 227.441406 C 374.410156 230.667969 374.65625 232.566406 374.65625 233.121094 L 375.320313 233.121094 C 377.917969 228.988281 381.363281 226.914063 385.675781 226.914063 C 387.707031 226.914063 389.988281 227.394531 392.527344 228.371094 Z M 432.375 270.152344 L 422.410156 270.515625 C 421.945313 269.265625 421.730469 268.15625 421.730469 267.164063 L 421.183594 267.164063 C 418.082031 269.914063 413.898438 271.292969 408.636719 271.292969 C 405.101563 271.292969 402.1875 270.273438 399.867188 268.246094 C 397.53125 266.199219 396.375 263.496094 396.375 260.113281 C 396.375 255.652344 398.179688 251.996094 401.800781 249.15625 C 405.417969 246.296875 411.765625 244.796875 420.835938 244.617188 C 420.894531 244.09375 420.921875 243.582031 420.921875 243.117188 C 420.921875 239.945313 420.1875 237.855469 418.730469 236.847656 C 417.261719 235.824219 414.578125 235.332031 410.652344 235.332031 C 406.398438 235.332031 402.246094 235.914063 398.195313 237.089844 L 399.117188 228.988281 C 402.953125 227.605469 408.363281 226.914063 415.34375 226.914063 C 420.445313 226.914063 424.386719 228.027344 427.152344 230.265625 C 429.9375 232.488281 431.320313 236.398438 431.320313 241.972656 C 431.320313 243.207031 431.261719 245.445313 431.164063 248.707031 C 431.078125 251.96875 431.019531 254.148438 431.019531 255.230469 C 431.019531 261.296875 431.464844 266.277344 432.375 270.152344 Z M 421.097656 260.996094 C 420.921875 257.035156 420.835938 253.605469 420.835938 250.734375 C 411.230469 250.734375 406.429688 253.277344 406.429688 258.355469 C 406.429688 261.84375 408.546875 263.585938 412.773438 263.585938 C 416.089844 263.585938 418.859375 262.730469 421.097656 260.996094 Z M 466.929688 207.722656 L 465.414063 215.546875 C 463.800781 215.144531 462.15625 214.9375 460.46875 214.9375 C 458.433594 214.9375 457.050781 215.914063 456.285156 217.851563 C 455.519531 219.773438 455.144531 223.53125 455.144531 229.121094 C 457.65625 229.121094 461.101563 229.003906 465.5 228.761719 L 465.15625 237.523438 C 460.757813 237.34375 457.425781 237.269531 455.144531 237.269531 C 455.144531 248.332031 455.347656 259.304688 455.78125 270.199219 L 444.617188 270.199219 C 445.050781 259.453125 445.253906 248.480469 445.253906 237.269531 C 443.59375 237.269531 441.128906 237.34375 437.867188 237.523438 L 438.199219 228.808594 C 441.1875 229.019531 443.535156 229.121094 445.253906 229.121094 C 445.253906 214.347656 450.011719 206.96875 459.546875 206.96875 C 462.386719 206.96875 464.851563 207.226563 466.929688 207.722656 Z M 509.558594 270.152344 L 499.679688 270.515625 C 499.234375 268.917969 499.003906 267.660156 499.003906 266.726563 L 498.324219 266.726563 C 494.632813 269.882813 490.320313 271.476563 485.402344 271.476563 C 480.746094 271.476563 477.253906 270.199219 474.902344 267.671875 C 472.539063 265.132813 471.371094 260.054688 471.371094 252.449219 C 471.371094 251.542969 471.382813 250.269531 471.429688 248.617188 C 471.472656 246.976563 471.5 245.535156 471.5 244.304688 C 471.5 241.058594 471.226563 235.855469 470.691406 228.71875 L 482.476563 228.28125 C 482.027344 233.914063 481.8125 239.253906 481.8125 244.304688 C 481.8125 251.503906 482.316406 256.339844 483.339844 258.835938 C 484.378906 261.332031 486.398438 262.578125 489.414063 262.578125 C 492.699219 262.578125 495.554688 261.753906 497.949219 260.113281 C 497.949219 244.679688 497.777344 234.1875 497.445313 228.667969 L 508.855469 228.28125 C 508.566406 233.828125 508.421875 241.027344 508.421875 249.847656 C 508.421875 256.402344 508.808594 263.164063 509.558594 270.152344 Z M 547.289063 258.171875 C 547.289063 266.984375 541.042969 271.386719 528.539063 271.386719 C 523.96875 271.386719 519.988281 270.871094 516.582031 269.851563 L 518.011719 261.164063 C 521.53125 262.488281 525.035156 263.152344 528.539063 263.152344 C 531.914063 263.152344 534.265625 262.863281 535.5625 262.277344 C 536.875 261.691406 537.539063 260.699219 537.539063 259.316406 C 537.539063 257.183594 535.171875 255.140625 530.429688 253.199219 C 526.289063 251.503906 523.273438 249.835938 521.402344 248.179688 C 518.804688 245.894531 517.507813 243.085938 517.507813 239.777344 C 517.507813 235.871094 518.90625 232.730469 521.6875 230.355469 C 524.472656 227.964844 528.539063 226.777344 533.859375 226.777344 C 538.835938 226.777344 542.757813 227.246094 545.601563 228.148438 L 544.171875 236.863281 C 540.984375 235.570313 537.554688 234.921875 533.859375 234.921875 C 529.347656 234.921875 527.097656 236.121094 527.097656 238.542969 C 527.097656 239.777344 527.574219 240.769531 528.539063 241.507813 C 529.492188 242.257813 531.453125 243.207031 534.410156 244.347656 C 538.492188 245.910156 541.460938 247.503906 543.320313 249.15625 C 545.976563 251.503906 547.289063 254.507813 547.289063 258.171875 Z M 595.585938 248.316406 C 595.585938 255.710938 593.410156 261.496094 589.039063 265.660156 C 584.683594 269.839844 579.535156 271.914063 573.621094 271.914063 C 567.984375 271.914063 563.152344 270.019531 559.128906 266.214844 C 555.105469 262.414063 553.085938 257.0625 553.085938 250.164063 C 553.085938 242.742188 555.277344 236.921875 559.675781 232.730469 C 564.074219 228.523438 569.222656 226.433594 575.136719 226.433594 C 580.746094 226.433594 585.5625 228.34375 589.574219 232.171875 C 593.582031 236.007813 595.585938 241.386719 595.585938 248.316406 Z M 584.566406 249.640625 C 584.566406 245.386719 583.601563 241.808594 581.699219 238.90625 C 579.78125 236.023438 577.285156 234.578125 574.214844 234.578125 C 571.226563 234.578125 568.804688 235.929688 566.929688 238.621094 C 565.054688 241.328125 564.117188 244.707031 564.117188 248.753906 C 564.117188 253.003906 565.070313 256.582031 566.988281 259.484375 C 568.90625 262.367188 571.402344 263.8125 574.472656 263.8125 C 577.457031 263.8125 579.882813 262.457031 581.757813 259.769531 C 583.632813 257.0625 584.566406 253.683594 584.566406 249.640625 Z M 631.929688 258.171875 C 631.929688 266.984375 625.683594 271.386719 613.183594 271.386719 C 608.609375 271.386719 604.628906 270.871094 601.226563 269.851563 L 602.652344 261.164063 C 606.171875 262.488281 609.675781 263.152344 613.183594 263.152344 C 616.554688 263.152344 618.90625 262.863281 620.207031 262.277344 C 621.515625 261.691406 622.179688 260.699219 622.179688 259.316406 C 622.179688 257.183594 619.816406 255.140625 615.070313 253.199219 C 610.933594 251.503906 607.917969 249.835938 606.042969 248.179688 C 603.449219 245.894531 602.148438 243.085938 602.148438 239.777344 C 602.148438 235.871094 603.546875 232.730469 606.332031 230.355469 C 609.113281 227.964844 613.183594 226.777344 618.503906 226.777344 C 623.480469 226.777344 627.402344 227.246094 630.242188 228.148438 L 628.816406 236.863281 C 625.628906 235.570313 622.195313 234.921875 618.503906 234.921875 C 613.988281 234.921875 611.738281 236.121094 611.738281 238.542969 C 611.738281 239.777344 612.214844 240.769531 613.183594 241.507813 C 614.132813 242.257813 616.09375 243.207031 619.050781 244.347656 C 623.132813 245.910156 626.105469 247.503906 627.964844 249.15625 C 630.617188 251.503906 631.929688 254.507813 631.929688 258.171875 Z M 694.984375 244.796875 C 694.984375 246.289063 694.898438 248.242188 694.738281 250.644531 L 667.523438 251.121094 C 667.914063 254.449219 669.285156 257.214844 671.621094 259.40625 C 673.957031 261.617188 677.027344 262.714844 680.835938 262.714844 C 685.0625 262.714844 689.546875 262.054688 694.304688 260.730469 L 693.46875 269.265625 C 689.574219 270.738281 684.757813 271.476563 679.019531 271.476563 C 671.75 271.476563 666.183594 269.34375 662.304688 265.089844 C 658.421875 260.835938 656.492188 255.710938 656.492188 249.730469 C 656.492188 243.476563 658.335938 238.046875 662 233.453125 C 665.675781 228.851563 670.78125 226.566406 677.332031 226.566406 C 683.300781 226.566406 687.730469 228.246094 690.628906 231.632813 C 693.539063 234.996094 694.984375 239.386719 694.984375 244.796875 Z M 685.105469 244.394531 C 685.105469 237.644531 682.335938 234.261719 676.8125 234.261719 C 671.546875 234.261719 668.417969 237.765625 667.4375 244.753906 Z M 762.882813 227.890625 C 762.882813 234.894531 760.386719 240.078125 755.382813 243.429688 C 750.378906 246.769531 744.25 248.453125 736.980469 248.453125 C 735.652344 248.453125 734.714844 248.417969 734.152344 248.359375 C 734.152344 253.878906 734.3125 261.152344 734.613281 270.199219 L 722.746094 270.199219 C 723.105469 261.722656 723.292969 251.726563 723.292969 240.214844 C 723.292969 229.648438 723.105469 220.527344 722.746094 212.863281 L 730.101563 212.863281 C 731.136719 212.863281 733.144531 212.832031 736.101563 212.742188 C 739.058594 212.652344 741.609375 212.605469 743.785156 212.605469 C 749.136719 212.605469 753.652344 213.867188 757.34375 216.394531 C 761.035156 218.914063 762.882813 222.746094 762.882813 227.890625 Z M 751.976563 230.3125 C 751.976563 224.027344 747.984375 220.886719 739.980469 220.886719 C 737.988281 220.886719 735.871094 221.097656 733.648438 221.542969 C 733.953125 227.09375 734.109375 233.378906 734.109375 240.394531 C 734.816406 240.441406 735.625 240.472656 736.5625 240.472656 C 746.84375 240.472656 751.976563 237.089844 751.976563 230.3125 Z M 810.15625 248.316406 C 810.15625 255.710938 807.980469 261.496094 803.609375 265.660156 C 799.253906 269.839844 794.105469 271.914063 788.191406 271.914063 C 782.554688 271.914063 777.722656 270.019531 773.699219 266.214844 C 769.675781 262.414063 767.65625 257.0625 767.65625 250.164063 C 767.65625 242.742188 769.847656 236.921875 774.246094 232.730469 C 778.644531 228.523438 783.792969 226.433594 789.707031 226.433594 C 795.316406 226.433594 800.132813 228.34375 804.144531 232.171875 C 808.152344 236.007813 810.15625 241.386719 810.15625 248.316406 Z M 799.136719 249.640625 C 799.136719 245.386719 798.171875 241.808594 796.269531 238.90625 C 794.351563 236.023438 791.855469 234.578125 788.785156 234.578125 C 785.796875 234.578125 783.375 235.929688 781.5 238.621094 C 779.625 241.328125 778.6875 244.707031 778.6875 248.753906 C 778.6875 253.003906 779.640625 256.582031 781.558594 259.484375 C 783.476563 262.367188 785.972656 263.8125 789.042969 263.8125 C 792.027344 263.8125 794.453125 262.457031 796.328125 259.769531 C 798.203125 257.0625 799.136719 253.683594 799.136719 249.640625 Z M 845.664063 228.371094 L 843.210938 238.664063 C 841.121094 237.792969 839.015625 237.34375 836.867188 237.34375 C 832.726563 237.34375 830 239.285156 828.675781 243.160156 C 828.675781 254.871094 828.761719 263.886719 828.933594 270.199219 L 817.683594 270.199219 C 818.175781 261.363281 818.40625 254.148438 818.40625 248.539063 C 818.40625 241.554688 817.699219 234.921875 816.300781 228.667969 L 827.074219 227.441406 C 827.550781 230.667969 827.792969 232.566406 827.792969 233.121094 L 828.457031 233.121094 C 831.054688 228.988281 834.5 226.914063 838.8125 226.914063 C 840.847656 226.914063 843.125 227.394531 845.664063 228.371094 Z M 883.105469 260.957031 L 882.382813 269.359375 C 879.816406 270.769531 876.339844 271.476563 871.957031 271.476563 C 864.6875 271.476563 859.089844 269.359375 855.195313 265.132813 C 851.289063 260.910156 849.339844 255.832031 849.339844 249.894531 C 849.339844 243.730469 851.390625 238.351563 855.46875 233.765625 C 859.550781 229.164063 865.148438 226.867188 872.242188 226.867188 C 875.703125 226.867188 878.792969 227.289063 881.503906 228.101563 L 880.0625 237.089844 C 877.464844 235.976563 874.566406 235.40625 871.363281 235.40625 C 867.945313 235.40625 865.261719 236.664063 863.289063 239.179688 C 861.3125 241.6875 860.332031 244.785156 860.332031 248.453125 C 860.332031 252.433594 861.5 255.816406 863.835938 258.582031 C 866.171875 261.332031 869.488281 262.714844 873.773438 262.714844 C 876.269531 262.714844 879.382813 262.128906 883.105469 260.957031 Z M 924.046875 270.152344 L 914.082031 270.515625 C 913.621094 269.265625 913.40625 268.15625 913.40625 267.164063 L 912.855469 267.164063 C 909.753906 269.914063 905.574219 271.292969 900.308594 271.292969 C 896.777344 271.292969 893.863281 270.273438 891.539063 268.246094 C 889.203125 266.199219 888.050781 263.496094 888.050781 260.113281 C 888.050781 255.652344 889.851563 251.996094 893.472656 249.15625 C 897.09375 246.296875 903.4375 244.796875 912.507813 244.617188 C 912.566406 244.09375 912.597656 243.582031 912.597656 243.117188 C 912.597656 239.945313 911.859375 237.855469 910.40625 236.847656 C 908.933594 235.824219 906.25 235.332031 902.328125 235.332031 C 898.074219 235.332031 893.917969 235.914063 889.867188 237.089844 L 890.789063 228.988281 C 894.628906 227.605469 900.035156 226.914063 907.015625 226.914063 C 912.121094 226.914063 916.058594 228.027344 918.828125 230.265625 C 921.609375 232.488281 922.996094 236.398438 922.996094 241.972656 C 922.996094 243.207031 922.9375 245.445313 922.835938 248.707031 C 922.75 251.96875 922.691406 254.148438 922.691406 255.230469 C 922.691406 261.296875 923.140625 266.277344 924.046875 270.152344 Z M 912.769531 260.996094 C 912.597656 257.035156 912.507813 253.605469 912.507813 250.734375 C 902.90625 250.734375 898.101563 253.277344 898.101563 258.355469 C 898.101563 261.84375 900.222656 263.585938 904.449219 263.585938 C 907.765625 263.585938 910.535156 262.730469 912.769531 260.996094 Z M 960.882813 258.171875 C 960.882813 266.984375 954.636719 271.386719 942.132813 271.386719 C 937.558594 271.386719 933.582031 270.871094 930.175781 269.851563 L 931.605469 261.164063 C 935.125 262.488281 938.628906 263.152344 942.132813 263.152344 C 945.507813 263.152344 947.859375 262.863281 949.15625 262.277344 C 950.46875 261.691406 951.132813 260.699219 951.132813 259.316406 C 951.132813 257.183594 948.765625 255.140625 944.023438 253.199219 C 939.882813 251.503906 936.867188 249.835938 934.992188 248.179688 C 932.398438 245.894531 931.101563 243.085938 931.101563 239.777344 C 931.101563 235.871094 932.5 232.730469 935.28125 230.355469 C 938.066406 227.964844 942.132813 226.777344 947.453125 226.777344 C 952.429688 226.777344 956.351563 227.246094 959.195313 228.148438 L 957.765625 236.863281 C 954.578125 235.570313 951.144531 234.921875 947.453125 234.921875 C 942.941406 234.921875 940.691406 236.121094 940.691406 238.542969 C 940.691406 239.777344 941.167969 240.769531 942.132813 241.507813 C 943.085938 242.257813 945.046875 243.207031 948.003906 244.347656 C 952.082031 245.910156 955.054688 247.503906 956.914063 249.15625 C 959.570313 251.503906 960.882813 254.507813 960.882813 258.171875 Z M 277.84375 62.078125 L 353.449219 62.078125 C 367.921875 62.078125 379.761719 73.914063 379.761719 88.390625 L 379.761719 96.246094 C 379.761719 110.71875 367.921875 122.558594 353.449219 122.558594 L 352.679688 122.558594 C 368.113281 125.921875 379.761719 139.738281 379.761719 156.140625 C 379.761719 175.039063 364.296875 190.503906 345.398438 190.503906 L 277.84375 190.503906 Z M 504.21875 192.242188 L 534.582031 192.242188 L 536.03125 53.601563 L 505.671875 53.601563 Z M 646.050781 143.617188 C 646.589844 129.199219 641.734375 93.78125 600.34375 93.78125 C 574.191406 93.78125 552.988281 116.09375 552.988281 143.617188 C 552.988281 171.136719 567.996094 193.449219 600.34375 193.449219 C 616.355469 193.082031 626.246094 190.28125 641.644531 181.828125 L 634.488281 162.0625 C 610.902344 177.4375 586.175781 174.105469 583.089844 147.5625 L 645.902344 147.5625 Z M 621.222656 130.972656 C 620.648438 120.453125 612.445313 112.121094 602.40625 112.121094 C 592.367188 112.121094 584.160156 120.453125 583.585938 130.972656 Z M 487.773438 143.617188 C 488.3125 129.199219 483.457031 93.78125 442.070313 93.78125 C 415.914063 93.78125 394.710938 116.09375 394.710938 143.617188 C 394.710938 171.136719 409.71875 193.449219 442.070313 193.449219 C 458.082031 193.082031 467.972656 190.28125 483.371094 181.828125 L 476.210938 162.0625 C 452.625 177.4375 427.902344 174.105469 424.816406 147.5625 L 487.625 147.5625 Z M 462.949219 130.972656 C 462.375 120.453125 454.167969 112.121094 444.128906 112.121094 C 434.089844 112.121094 425.886719 120.453125 425.3125 130.972656 Z M 330.472656 81.121094 L 311.621094 81.121094 L 311.621094 114.902344 L 330.472656 114.902344 C 339.761719 114.902344 347.359375 107.304688 347.359375 98.015625 L 347.359375 98.011719 C 347.359375 88.726563 339.761719 81.121094 330.472656 81.121094 Z M 329.292969 133.359375 L 311.621094 133.359375 L 311.621094 169.492188 L 329.292969 169.492188 C 339.230469 169.492188 347.359375 161.363281 347.359375 151.425781 C 347.359375 141.492188 339.230469 133.359375 329.292969 133.359375 Z M 662.886719 192.242188 L 693.25 192.242188 L 694.171875 132.289063 C 703.152344 119.308594 722.285156 114.34375 725.011719 136.480469 L 723.765625 192.242188 L 754.125 192.242188 L 755.578125 123.117188 C 756.175781 86.660156 714.925781 91.378906 694.5 111.152344 L 694.699219 97.984375 L 664.339844 97.984375 Z M 870.265625 97.136719 L 839.902344 97.136719 L 838.980469 157.085938 C 830 170.070313 810.867188 175.039063 808.140625 152.898438 L 809.386719 97.136719 L 779.027344 97.136719 L 777.574219 166.261719 C 776.976563 202.722656 818.226563 197.996094 838.652344 178.230469 L 838.453125 191.394531 L 868.8125 191.394531 Z M 870.265625 97.136719 "/>
</g>
<path style=" stroke:none;fill-rule:evenodd;fill:rgb(65.429688%,66.209412%,67.381287%);fill-opacity:1;" d="M 13.136719 271.996094 C 229.96875 290.109375 354.1875 70.976563 122.320313 120.007813 C 283.597656 111.203125 200.117188 263.511719 13.136719 271.996094 Z M 13.136719 271.996094 "/>
</g>
</svg>
